<?xml version="1.0" encoding="iso-8859-1"?>
<!DOCTYPE svg PUBLIC "-//W3C//DTD SVG 1.1//EN" "http://www.w3.org/Graphics/SVG/1.1/DTD/svg11.dtd">
<svg 
 version="1.1" xmlns="http://www.w3.org/2000/svg" xmlns:xlink="http://www.w3.org/1999/xlink" x="0px" y="0px" width="512px"
	 height="512px" viewBox="0 0 512 512" style="enable-background:new 0 0 512 512;" xml:space="preserve"
><g id="afcae5a789ccd549f9c6e2a2f80a15ec"><g></g><g fill="#ffffff"><path style="display: inline;" d="M300.091,497.557l-4.146,13.943H85.667l5.275-13.943c21.104-0.502,35.047-2.261,41.83-5.275
		c11.054-4.271,19.219-10.175,24.495-17.712c8.29-11.808,16.828-32.911,25.625-63.31l88.935-308.258
		c7.537-25.625,11.306-44.97,11.306-58.034c0-6.532-1.637-12.059-4.899-16.582c-3.266-4.522-8.231-7.972-14.885-10.363
		c-6.657-2.387-19.659-3.58-39.003-3.58L228.867,0.5h197.466l-4.145,13.943c-16.079-0.247-28.017,1.507-35.801,5.276
		c-11.305,5.029-19.914,12.188-25.813,21.48c-5.904,9.295-13.508,29.9-22.799,61.802L249.217,411.26
		c-8.044,28.393-12.059,46.481-12.059,54.266c0,6.28,1.565,11.623,4.71,16.016c3.141,4.396,8.161,7.788,15.074,10.175
		C263.851,494.106,278.233,496.05,300.091,497.557z"></path></g></g></svg>